<?xml version="1.0" encoding="utf-8"?>
<!-- Generator: Adobe Illustrator 19.1.0, SVG Export Plug-In . SVG Version: 6.00 Build 0)  -->
<svg version="1.1" id="Layer_1" xmlns="http://www.w3.org/2000/svg" xmlns:xlink="http://www.w3.org/1999/xlink" x="0px" y="0px"
	 width="60px" height="90px" viewBox="-10 -15 60 90" style="enable-background:new -10 -15 60 90;" xml:space="preserve">
<style type="text/css">
	.st0{opacity:0.9;fill:#EAF1F4;}
	.st1{fill:#935A21;}
	.st2{fill:#C6CCB8;}
	.st3{opacity:0.1;fill:#4C575B;}
	.st4{opacity:0.7;fill:#603A0B;enable-background:new    ;}
	.st5{opacity:0.3;fill:#FFFFFF;}
	.st6{opacity:0.7;fill:#935A21;enable-background:new    ;}
	.st7{fill:#FFFFFF;}
	.st8{fill:#7C8689;}
</style>
<g>
	<path class="st0" d="M-1.3,8.8c0,0-0.5-12,0-13.3s0.5-5.4,3.9-5.9c3.4-0.4,9-1.8,13.8-2.7s13.8,3,15.6,3c1.8,0,8.1,0,8.9,4.5
		S41.1,8,41.1,8S33.9,10.5-1.3,8.8z"/>
	<path class="st1" d="M-1.4,8.5c0,0,29.7,2.5,42.2-0.6C40.8,8,19.1,16.5-1.4,8.5z"/>
	<g>
		<path class="st2" d="M2.2,71.9v-0.8c1.7-3,3-6.2,3.9-9.5v-0.4c0-0.3,0-0.6-2-9.4C1.5,39.1-4,12.9-4,9.3V-1.3l0,0
			c0,0,0.1-2.5,0.3-3.9c0-0.5,0.3-0.8,0.6-0.9c3.6,0,31.8-0.6,40.9-0.6c1.2,0,2.1,0,2.5,0c2.1,0.1,2.9,0.6,3.1,0.9v15
			c0,4.9-10.1,51.1-10.2,51.6v-0.1v0.9c0.9,3.3,2.2,6.4,3.9,9.4v0.8H2.2V71.9z M8.3,61.5c-0.3,1.4-0.6,2.6-1,3.8l-0.2,0.4
			c0,1.5,0.8,2.4,1.9,2.4h21.1c0.6,0,1.1-0.3,1.5-0.8c0.6-0.8,0.4-1.8,0.4-2.1v-0.1c-0.4-1.2-0.8-2.6-1.1-3.8
			c0.1-0.9,0.9-4.5,1.8-8.9C36.8,33.1,41,12.3,41,8.7v-10l-1.4-1.3H0l-1.3,1.3V8.9c0,3.6,4,24.6,7.8,43.8C7.4,57,8.2,60.6,8.3,61.5z
			"/>
		<path class="st3" d="M37.4,72.1H2.2c-0.2,0-0.3-0.1-0.3-0.3v-0.8v-0.2c1.7-3,3-6.1,3.9-9.3v-0.3c0-0.2-0.2-0.9-2-9.3
			C1.1,39.4-4.5,13-4.5,9.4V-1.3l0,0c0-0.9,0.2-2.9,0.3-3.9c0-0.5,0.4-0.9,0.7-1.1h0.1c3.1,0,31.8-0.6,41.1-0.6c1.2,0,2.1,0,2.5,0
			c2.4,0.2,3.1,0.9,3.5,1v0.1v15c0,4.8-9.3,47.6-10.1,51.3l0,0v0.9c0.9,3.1,2.2,6.3,3.9,9.3v0.1v0.8C37.7,72,37.6,72.1,37.4,72.1z
			 M2.6,71.6h34.5v-0.3c-1.7-3-3-6.1-3.9-9.4v-0.2v-0.6c0,0,0-0.2,0-0.3c0.2-0.4,10.2-46.7,10.2-51.4V-5.4c-0.1-0.2-0.9-0.6-2.9-0.8
			c-0.4,0-1.2,0-2.6,0C28.8-6.1,0.8-5.7-3-5.5c-0.1,0-0.4,0.2-0.4,0.4C-3.5-4-3.5-2-3.7-1.3l0,0l0,0V9.3c0,3.4,5.5,29.8,8.2,42.4
			c2,9.1,2,9.1,2,9.4v0.5c-0.9,3.3-2.2,6.5-3.9,9.5V71.6z M30.2,68.6H9c-1.3,0-2.2-1.1-2.2-2.9L7,65.1c0.5-1.2,0.8-2.4,1-3.8
			c-0.2-0.9-0.9-4.5-1.7-8.6v-0.1c-3.9-19.2-7.9-40-7.9-43.8V-1.3c0-0.2,0-0.2,0.1-0.3L-0.1-3C-0.1-3,0-3,0-3h39.3
			c0.1,0,0.1,0,0.3,0.2L41-1.5c0,0,0.1,0.2,0.1,0.3V9c0,3.6-4.2,24.6-8.1,43.9c-0.8,3.9-1.5,7.8-1.8,8.7c0.3,1.2,0.6,2.4,1.1,3.6
			v0.1c0.1,0.3,0.3,1.5-0.5,2.4C31.4,68.2,30.8,68.6,30.2,68.6z M6.8,52.6v0.1c0.9,4.2,1.5,7.8,1.7,8.7v0.2
			c-0.3,1.3-0.6,2.6-1.1,3.8v0.4c0,1.2,0.6,2.1,1.5,2.1h21.2c0.4,0,0.9-0.2,1.2-0.6c0.4-0.6,0.4-1.5,0.3-1.8v-0.1
			c-0.4-1.2-0.8-2.6-1.1-3.8v-0.2c0.2-0.9,0.9-4.5,1.8-8.8c3.9-19.3,8.1-40.2,8.1-43.8v-10l-1.2-1.2h-39L-1-1.2v10"/>
	</g>
	<path class="st4" d="M29.9,59.4c0,1.8-4.5,6.7-10,6.7s-10-4.9-10-6.7s4.5,2.5,10,2.5S29.9,57.6,29.9,59.4z"/>
</g>
<ellipse transform="matrix(0.9897 -0.143 0.143 0.9897 -5.1434 1.8388)" class="st5" cx="10.2" cy="36.7" rx="4.1" ry="17.6"/>
<path class="st6" d="M2.4-7.7c0,0,10.7,1.7,12.2,2.3s3.8,1.4,4.3,3.3s0,3.3,0.9,4.3s1.5,1,1.9,2.7s0.8,3.2,1.5,4.6s1.3,2,2.6,2.1
	s5.2,0.6,6-3.3S31.2,3.4,31.6,2s1.3-3.1,0.9-5.1S23.9-8,23.9-8S6.3-8.1,2.4-7.7z"/>
<path class="st7" d="M2-7.4c0,0,8.8,1.2,13.5,1s2.2,1.6,4.9,3.5s2.4,5.9,4.3,5.3s-2.4,6.8,0.9,7.2c3.4,0.4,7.5,1.9,8.4-1.2
	s4.3-6.2,4.7-8.1s1.7-1,2.6-3s4.2-3,2-4s-5-3.9-10.1-3.2c-5.1,0.7-11.6-1.3-16.3-1s-5.8,1.2-7.9,1.4S4.6-9.6,2-7.4z"/>
<path class="st6" d="M29.7,17.9c0-1.9-1.4-3.4-3.1-3.4s-3.1,1.5-3.1,3.4c0,1,0.4,1.8,0.9,2.5c-0.6,0.6-0.9,1.5-0.9,2.6
	c0,1.7,0.9,3.1,2.1,3.1c1,0,1.8-1,2-2.4c0.1,0,0.1,0,0.1,0c1,0,1.8-1,1.8-2.2c0-0.6-0.2-1.1-0.5-1.5C29.4,19.4,29.7,18.7,29.7,17.9z
	"/>
<path class="st7" d="M31.2,15.9c0-1.7-1.5-3-3.4-3s-3.4,1.3-3.4,3c0,0.8,0.4,1.6,1,2.1c-0.6,0.5-1,1.3-1,2.3c0,1.5,1,2.7,2.2,2.7
	c1.1,0,1.9-0.9,2.2-2.1c0.1,0,0.1,0,0.2,0c1.1,0,2-0.8,2-1.9c0-0.5-0.2-1-0.6-1.3C30.9,17.3,31.2,16.6,31.2,15.9z"/>
<path class="st8" d="M37.3,75H2.6c-0.7,0-1.2-0.6-1.2-1.2v-1.2c0-0.7,0.6-1.2,1.2-1.2h34.7c0.7,0,1.2,0.6,1.2,1.2v1.2
	C38.6,74.4,38,75,37.3,75z"/>
</svg>
