<?xml version="1.0" encoding="utf-8"?>
<!-- Generator: Adobe Illustrator 19.1.0, SVG Export Plug-In . SVG Version: 6.00 Build 0)  -->
<svg version="1.1" id="Layer_1" xmlns="http://www.w3.org/2000/svg" xmlns:xlink="http://www.w3.org/1999/xlink" x="0px" y="0px"
	 width="28px" height="28px" viewBox="0 0 28 28" style="enable-background:new 0 0 28 28;" xml:space="preserve">
<style type="text/css">
	.st0{fill:#CEBD45;}
	.st1{fill-rule:evenodd;clip-rule:evenodd;fill:#CEBD45;}
</style>
<path class="st0" d="M19.3,5.7c0,1-1.9,10-2,10c0.2,0.6,0.4,1.2,0.8,1.8c0,0.4,0,0.5,0,0.5h-7.3c0,0,0-0.1,0-0.5
	c0.3-0.6,0.6-1.2,0.8-1.8c0-0.1-2-9.1-2-10V3.6h1v2c0,1,1.9,10,1.9,10.2c-0.1,0.3-0.1,0.5-0.2,0.8c0,0,0,0.2,0.1,0.2h4.1
	c0.2,0,0.1-0.2,0.1-0.2c-0.1-0.3-0.2-0.5-0.2-0.8l0,0c0-0.1,1.9-9.2,1.9-10.2v-2h1.1V5.7z"/>
<path class="st0" d="M19.3,3.3h-1.6c0,0.4,0.2,2.2-1.4,2.2c0,0.7-0.6,1.3-1.3,1.4c-0.1,0-0.2,0-0.4,0V3.3h-5C9.3,3.3,9.2,3,9.2,2.7
	c0-0.6,1.8-1.9,5.3-1.9s5.3,1.3,5.3,1.9C19.7,3,19.6,3.3,19.3,3.3z"/>
<g>
	<g>
		<g>
			<path class="st1" d="M12.5,26.2c0.5-1.5,2.4-2,3.8-2.4c0,0.1,0,0.1,0,0.2c0,0,0.1,0.1,0.1,0.1c-1.2,0.6-2.9,1-3.3,2.3
				C12.9,26.8,12.4,26.6,12.5,26.2z"/>
			<path class="st1" d="M22.7,21.3c0.6,0,1.2,0.2,1.8,0.2c-0.6,1.1-1.8,1.9-2.7,1.4c0.2-0.2,0.4-0.4,0.5-0.7c0,0,0,0,0-0.1
				c0.1-0.1,0.3-0.1,0.4-0.2c-0.1,0-0.2,0.1-0.3,0.1C22.5,21.9,22.6,21.6,22.7,21.3z"/>
			<path class="st1" d="M19.9,22.9c-0.5-1.9,1.4-1.9,2.7-2.5c0,1.7-1.3,3.5-2.6,2.6c0.4-0.3,0.9-0.8,1.1-1.2
				C20.8,22.3,20.3,22.6,19.9,22.9z"/>
			<path class="st1" d="M22.5,19.3c0,0,0.4,1.3-0.6,1.4l0,0C21.6,19.7,22.2,19.6,22.5,19.3z"/>
			<path class="st1" d="M22,20.4C22,20.4,22.1,20.5,22,20.4c-0.2,0.5-1.7,0.3-1.8,1.6l-0.1,0C20.2,20.7,21.8,20.9,22,20.4z"/>
			<path class="st1" d="M25,18.7c0.5-0.2,1.1-0.2,1.7-0.4c-0.2,1.2-1.1,2.3-2,2.1c0.1-0.2,0.2-0.5,0.3-0.7c0,0,0,0,0-0.1
				c0.1-0.1,0.2-0.2,0.3-0.3c-0.1,0.1-0.2,0.1-0.3,0.2C25,19.3,25.1,19,25,18.7z"/>
			<path class="st1" d="M23,21c-1-1.5,0.8-2.1,1.8-3.1c0.5,1.6-0.2,3.5-1.7,3.2c0.3-0.4,0.6-1,0.7-1.4C23.6,20.1,23.2,20.6,23,21z"
				/>
			<path class="st1" d="M24.3,16.9c0,0,0.7,1.1-0.2,1.4l-0.1,0C23.6,17.5,24.2,17.3,24.3,16.9z"/>
			<path class="st1" d="M24.2,18.1C24.2,18.1,24.2,18.1,24.2,18.1c0,0.5-1.4,0.8-1.2,2l-0.1,0C22.6,18.9,24.1,18.6,24.2,18.1z"/>
			<path class="st1" d="M26.4,15.8c0.4-0.3,0.9-0.5,1.3-0.8c0.1,1.1-0.4,2.3-1.2,2.4c0.1-0.2,0.1-0.5,0.1-0.7c0,0,0-0.1,0-0.1
				c0.1-0.1,0.1-0.2,0.2-0.3c-0.1,0.1-0.1,0.2-0.2,0.2C26.6,16.3,26.5,16,26.4,15.8z"/>
			<path class="st1" d="M25.2,18.3c-1.2-1.1,0.2-2.1,0.8-3.1c0.8,1.2,0.7,3.1-0.7,3.2c0.1-0.4,0.2-1,0.3-1.4
				C25.5,17.4,25.3,17.9,25.2,18.3z"/>
			<path class="st1" d="M25.4,14.5c0,0,0.9,0.7,0.2,1.3l0,0C24.9,15.2,25.3,14.8,25.4,14.5z"/>
			<path class="st1" d="M25.6,15.5C25.6,15.5,25.6,15.5,25.6,15.5c0.1,0.5-1,1-0.5,2.1l-0.1,0.1C24.4,16.6,25.6,15.9,25.6,15.5z"/>
			<path class="st1" d="M27,12.8c0.3-0.3,0.7-0.7,1-1c0.3,0.9,0.1,2.2-0.6,2.4c0-0.2,0-0.4-0.1-0.7c0,0,0-0.1,0-0.1
				c0-0.1,0.1-0.2,0.1-0.3c0,0.1-0.1,0.2-0.1,0.2C27.2,13.2,27.1,13,27,12.8z"/>
			<path class="st1" d="M26.5,15.4c-1.3-0.6-0.3-1.9,0-3c1,0.9,1.3,2.6,0.1,3.1c0-0.4,0-1-0.1-1.3C26.5,14.5,26.5,15,26.5,15.4z"/>
			<path class="st1" d="M25.7,11.9c0,0,1,0.4,0.4,1.1l0,0C25.4,12.7,25.8,12.2,25.7,11.9z"/>
			<path class="st1" d="M26.1,12.8C26.1,12.8,26.2,12.8,26.1,12.8c0.2,0.4-0.7,1.2,0,2l-0.1,0.1C25.3,14.1,26.3,13.2,26.1,12.8z"/>
			<path class="st1" d="M26.8,9.9c0.2-0.4,0.5-0.8,0.7-1.2c0.5,0.8,0.6,1.9,0,2.3c-0.1-0.2-0.1-0.4-0.3-0.6c0,0,0,0,0-0.1
				c0-0.1,0-0.2,0-0.3c0,0.1,0,0.2,0,0.2C27.1,10.3,27,10.1,26.8,9.9z"/>
			<path class="st1" d="M26.9,12.4c-1.4-0.3-0.7-1.6-0.7-2.8c1.1,0.6,1.8,2.1,0.8,2.7c-0.1-0.4-0.2-0.9-0.4-1.2
				C26.8,11.6,26.8,12.1,26.9,12.4z"/>
			<path class="st1" d="M25.4,9.4c0,0,1,0.2,0.7,0.9l0,0C25.4,10.2,25.6,9.7,25.4,9.4z"/>
			<path class="st1" d="M26,10.1C26,10.1,26.1,10.1,26,10.1c0.3,0.3-0.4,1.3,0.4,1.8l0,0.1C25.6,11.5,26.2,10.4,26,10.1z"/>
			<path class="st1" d="M26.1,7.5c0.1-0.4,0.3-0.8,0.4-1.1c0.6,0.5,0.9,1.5,0.5,2c-0.1-0.2-0.2-0.3-0.3-0.4c0,0,0,0-0.1-0.1
				c0-0.1,0-0.2,0-0.2c0,0.1,0,0.1,0,0.2C26.4,7.7,26.3,7.6,26.1,7.5z"/>
			<path class="st1" d="M26.6,9.6c-1.2,0.1-0.9-1.3-1.1-2.2C26.6,7.7,27.5,8.8,26.6,9.6c0-0.4-0.3-0.8-0.4-1
				C26.4,9,26.5,9.3,26.6,9.6z"/>
			<path class="st1" d="M24.8,7.4c0,0,0.9-0.1,0.7,0.6l0,0C24.9,8,25,7.6,24.8,7.4z"/>
			<path class="st1" d="M25.4,7.8C25.4,7.8,25.5,7.8,25.4,7.8c0.3,0.2-0.1,1.2,0.7,1.5l0,0.1C25.3,9.1,25.7,8.1,25.4,7.8z"/>
			<path class="st1" d="M25,5.4c0-0.4,0.1-0.8,0.1-1.2C25.8,4.6,26.2,5.5,26,6c-0.1-0.1-0.2-0.3-0.4-0.4c0,0,0,0-0.1,0
				c0-0.1-0.1-0.1-0.1-0.2c0,0.1,0,0.1,0,0.2C25.3,5.5,25.1,5.4,25,5.4z"/>
			<path class="st1" d="M25.9,7.3c-1.1,0.3-1.1-1-1.5-1.9C25.5,5.4,26.5,6.3,25.9,7.3c-0.1-0.3-0.4-0.7-0.6-0.8
				C25.5,6.7,25.7,7,25.9,7.3z"/>
			<path class="st1" d="M23.7,5.5c0,0,0.8-0.2,0.8,0.5l0,0C23.9,6.1,23.9,5.7,23.7,5.5z"/>
			<path class="st1" d="M24.4,5.8C24.4,5.8,24.4,5.8,24.4,5.8c0.3,0.2,0.2,1.1,1,1.3l0,0.1C24.5,7.1,24.7,6,24.4,5.8z"/>
			<path class="st1" d="M23.5,3.6c0-0.3,0-0.7-0.1-1.1c0.7,0.2,1.2,0.9,1.1,1.5c-0.1-0.1-0.3-0.2-0.4-0.3c0,0-0.1,0-0.1,0
				C24,3.7,24,3.6,24,3.6c0,0,0,0.1,0.1,0.1C23.9,3.7,23.7,3.6,23.5,3.6z"/>
			<path class="st1" d="M24.7,5.2c-1,0.5-1.2-0.7-1.7-1.5C24,3.6,25.1,4.2,24.7,5.2c-0.2-0.3-0.5-0.5-0.7-0.7
				C24.3,4.7,24.5,5,24.7,5.2z"/>
			<path class="st1" d="M22.4,4c0,0,0.7-0.4,0.8,0.3l0,0C22.7,4.5,22.6,4.1,22.4,4z"/>
			<path class="st1" d="M23.1,4.1C23.1,4.1,23.1,4.1,23.1,4.1c0.3,0.1,0.3,1,1.1,1l0,0.1C23.4,5.2,23.4,4.2,23.1,4.1z"/>
			<path class="st1" d="M23.4,3.4c0-0.2-0.3-1.1-2-1.3C21.9,2.5,22.7,3.6,23.4,3.4c-0.3-0.1-0.8-0.6-0.8-0.6
				C22.8,2.9,23.2,3.3,23.4,3.4z"/>
			<path class="st1" d="M19.5,23.3c0.6,0.2,1.2,0.6,1.8,0.9c-1,1-2.6,1.3-3.3,0.5c0.3-0.1,0.5-0.3,0.8-0.5c0,0,0,0,0,0
				c0.2,0,0.3,0,0.5,0c-0.1,0-0.3,0-0.4,0C19.1,23.8,19.3,23.6,19.5,23.3z"/>
			<path class="st1" d="M16,23.9c0.1-2.2,2.2-1.4,3.7-1.6c-0.6,1.8-2.5,3.2-3.7,1.8c0.5-0.2,1.2-0.5,1.6-0.8
				C17.1,23.6,16.5,23.7,16,23.9z"/>
			<path class="st1" d="M19.9,21.1c0,0,0,1.5-1.1,1.2l0-0.1C18.9,21.1,19.6,21.3,19.9,21.1z"/>
			<path class="st1" d="M19.1,22.1C19.1,22.1,19.1,22.2,19.1,22.1c-0.4,0.5-1.8-0.3-2.5,1.1l-0.1-0.1C17.1,21.7,18.7,22.5,19.1,22.1
				z"/>
		</g>
		<g>
			<path class="st1" d="M16.1,26.2c-0.5-1.5-2.4-2-3.8-2.4c0,0.1,0,0.1,0,0.2c0,0-0.1,0.1-0.1,0.1c1.2,0.6,2.9,1,3.3,2.3
				C15.8,26.8,16.3,26.6,16.1,26.2z"/>
			<path class="st1" d="M6,21.3c-0.6,0-1.2,0.2-1.8,0.2c0.6,1.1,1.8,1.9,2.7,1.4c-0.2-0.2-0.4-0.4-0.5-0.7c0,0,0,0,0-0.1
				C6.2,22.2,6.1,22.1,6,22c0.1,0,0.2,0.1,0.3,0.1C6.2,21.9,6.1,21.6,6,21.3z"/>
			<path class="st1" d="M8.7,22.9C9.2,21.1,7.3,21,6,20.4c0,1.7,1.3,3.5,2.6,2.6c-0.4-0.3-0.9-0.8-1.1-1.2
				C7.9,22.3,8.4,22.6,8.7,22.9z"/>
			<path class="st1" d="M6.2,19.3c0,0-0.4,1.3,0.6,1.4l0,0C7.1,19.7,6.4,19.6,6.2,19.3z"/>
			<path class="st1" d="M6.6,20.4C6.6,20.4,6.6,20.5,6.6,20.4c0.2,0.5,1.7,0.3,1.8,1.6l0.1,0C8.4,20.7,6.9,20.9,6.6,20.4z"/>
			<path class="st1" d="M3.6,18.7c-0.5-0.2-1.1-0.2-1.7-0.4c0.2,1.2,1.1,2.3,2,2.1c-0.1-0.2-0.2-0.5-0.3-0.7c0,0,0,0,0-0.1
				c-0.1-0.1-0.2-0.2-0.3-0.3c0.1,0.1,0.2,0.1,0.3,0.2C3.6,19.3,3.6,19,3.6,18.7z"/>
			<path class="st1" d="M5.7,21c1-1.5-0.8-2.1-1.8-3.1c-0.5,1.6,0.2,3.5,1.7,3.2c-0.3-0.4-0.6-1-0.7-1.4C5.1,20.1,5.4,20.6,5.7,21z"
				/>
			<path class="st1" d="M4.4,16.9c0,0-0.7,1.1,0.2,1.4l0.1,0C5.1,17.5,4.5,17.3,4.4,16.9z"/>
			<path class="st1" d="M4.5,18.1C4.5,18.1,4.4,18.1,4.5,18.1c0,0.5,1.4,0.8,1.2,2l0.1,0C6,18.9,4.5,18.6,4.5,18.1z"/>
			<path class="st1" d="M2.2,15.8c-0.4-0.3-0.9-0.5-1.3-0.8c-0.1,1.1,0.4,2.3,1.2,2.4c-0.1-0.2-0.1-0.5-0.1-0.7c0,0,0-0.1,0-0.1
				c-0.1-0.1-0.1-0.2-0.2-0.3c0.1,0.1,0.1,0.2,0.2,0.2C2.1,16.3,2.1,16,2.2,15.8z"/>
			<path class="st1" d="M3.5,18.3c1.2-1.1-0.2-2.1-0.8-3.1c-0.8,1.2-0.7,3.1,0.7,3.2c-0.1-0.4-0.2-1-0.3-1.4
				C3.2,17.4,3.3,17.9,3.5,18.3z"/>
			<path class="st1" d="M3.3,14.5c0,0-0.9,0.7-0.2,1.3l0,0C3.8,15.2,3.3,14.8,3.3,14.5z"/>
			<path class="st1" d="M3.1,15.5C3.1,15.5,3.1,15.5,3.1,15.5c-0.1,0.5,1,1,0.5,2.1l0.1,0.1C4.3,16.6,3.1,15.9,3.1,15.5z"/>
			<path class="st1" d="M1.7,12.8c-0.3-0.3-0.7-0.7-1-1c-0.3,0.9-0.1,2.2,0.6,2.4c0-0.2,0-0.4,0.1-0.7c0,0,0-0.1,0-0.1
				c0-0.1-0.1-0.2-0.1-0.3c0,0.1,0.1,0.2,0.1,0.2C1.4,13.2,1.5,13,1.7,12.8z"/>
			<path class="st1" d="M2.2,15.4c1.3-0.6,0.3-1.9,0-3c-1,0.9-1.3,2.6-0.1,3.1c0-0.4,0-1,0.1-1.3C2.1,14.5,2.2,15,2.2,15.4z"/>
			<path class="st1" d="M3,11.9c0,0-1,0.4-0.4,1.1l0,0C3.2,12.7,2.9,12.2,3,11.9z"/>
			<path class="st1" d="M2.5,12.8C2.5,12.8,2.5,12.8,2.5,12.8c-0.2,0.4,0.7,1.2,0,2l0.1,0.1C3.3,14.1,2.4,13.2,2.5,12.8z"/>
			<path class="st1" d="M1.8,9.9C1.7,9.6,1.3,9.2,1.1,8.8c-0.5,0.8-0.6,1.9,0,2.3c0.1-0.2,0.1-0.4,0.3-0.6c0,0,0,0,0-0.1
				c0-0.1,0-0.2,0-0.3c0,0.1,0,0.2,0,0.2C1.5,10.3,1.7,10.1,1.8,9.9z"/>
			<path class="st1" d="M1.8,12.4c1.4-0.3,0.7-1.6,0.7-2.8c-1.1,0.6-1.8,2.1-0.8,2.7C1.7,12,1.9,11.5,2,11.2
				C1.9,11.6,1.8,12.1,1.8,12.4z"/>
			<path class="st1" d="M3.2,9.4c0,0-1,0.2-0.7,0.9l0,0C3.3,10.2,3.1,9.7,3.2,9.4z"/>
			<path class="st1" d="M2.7,10.1C2.7,10.1,2.6,10.1,2.7,10.1C2.4,10.5,3,11.4,2.2,12l0,0.1C3.1,11.5,2.4,10.4,2.7,10.1z"/>
			<path class="st1" d="M2.6,7.5C2.5,7.2,2.3,6.8,2.2,6.4c-0.6,0.5-0.9,1.5-0.5,2C1.8,8.2,1.9,8.1,2,7.9c0,0,0,0,0.1-0.1
				c0-0.1,0-0.2,0-0.2c0,0.1,0,0.1,0,0.2C2.3,7.7,2.4,7.6,2.6,7.5z"/>
			<path class="st1" d="M2,9.6C3.3,9.7,3,8.4,3.1,7.4C2.1,7.7,1.2,8.8,2,9.6c0-0.4,0.3-0.8,0.4-1C2.3,9,2.2,9.3,2,9.6z"/>
			<path class="st1" d="M3.8,7.4c0,0-0.9-0.1-0.7,0.6l0,0C3.8,8,3.7,7.6,3.8,7.4z"/>
			<path class="st1" d="M3.2,7.8C3.2,7.8,3.2,7.8,3.2,7.8C2.9,8.1,3.3,9,2.5,9.3l0,0.1C3.3,9.1,3,8.1,3.2,7.8z"/>
			<path class="st1" d="M3.7,5.4c0-0.4-0.1-0.8-0.1-1.2C2.9,4.6,2.4,5.5,2.7,6C2.8,5.9,3,5.8,3.1,5.6c0,0,0,0,0.1,0
				c0-0.1,0.1-0.1,0.1-0.2c0,0.1,0,0.1,0,0.2C3.4,5.5,3.5,5.4,3.7,5.4z"/>
			<path class="st1" d="M2.8,7.3c1.1,0.3,1.1-1,1.5-1.9C3.2,5.4,2.1,6.3,2.8,7.3c0.1-0.3,0.4-0.7,0.6-0.8C3.2,6.7,3,7,2.8,7.3z"/>
			<path class="st1" d="M4.9,5.5c0,0-0.8-0.2-0.8,0.5l0,0C4.7,6.1,4.8,5.7,4.9,5.5z"/>
			<path class="st1" d="M4.3,5.8C4.3,5.8,4.2,5.8,4.3,5.8C4,6,4.1,7,3.3,7.1l0,0.1C4.1,7.1,4,6,4.3,5.8z"/>
			<path class="st1" d="M5.1,3.6c0-0.3,0-0.7,0.1-1.1C4.5,2.8,4,3.5,4.1,4c0.1-0.1,0.3-0.2,0.4-0.3c0,0,0.1,0,0.1,0
				c0-0.1,0.1-0.1,0.1-0.2c0,0,0,0.1-0.1,0.1C4.8,3.7,5,3.6,5.1,3.6z"/>
			<path class="st1" d="M4,5.2c1,0.5,1.2-0.7,1.7-1.5C4.6,3.6,3.5,4.2,4,5.2c0.2-0.3,0.5-0.5,0.7-0.7C4.4,4.7,4.2,5,4,5.2z"/>
			<path class="st1" d="M6.2,4c0,0-0.7-0.4-0.8,0.3l0,0C5.9,4.5,6,4.1,6.2,4z"/>
			<path class="st1" d="M5.6,4.1C5.6,4.1,5.5,4.1,5.6,4.1c-0.3,0.1-0.3,1-1.1,1l0,0.1C5.2,5.2,5.3,4.2,5.6,4.1z"/>
			<path class="st1" d="M5.3,3.4c0-0.2,0.3-1.1,2-1.3C6.8,2.5,6,3.6,5.3,3.4c0.3-0.1,0.8-0.6,0.8-0.6C5.9,2.9,5.5,3.3,5.3,3.4z"/>
			<path class="st1" d="M9.2,23.3c-0.6,0.2-1.2,0.6-1.8,0.9c1,1,2.6,1.3,3.3,0.5c-0.3-0.1-0.5-0.3-0.8-0.5c0,0,0,0,0,0
				c-0.2,0-0.3,0-0.5,0c0.1,0,0.3,0,0.4,0C9.6,23.8,9.4,23.6,9.2,23.3z"/>
			<path class="st1" d="M12.6,23.9c-0.1-2.2-2.2-1.4-3.7-1.6c0.6,1.8,2.5,3.2,3.7,1.8c-0.5-0.2-1.2-0.5-1.6-0.8
				C11.5,23.6,12.1,23.7,12.6,23.9z"/>
			<path class="st1" d="M8.7,21.1c0,0,0,1.5,1.1,1.2l0-0.1C9.8,21.1,9.1,21.3,8.7,21.1z"/>
			<path class="st1" d="M9.6,22.1C9.6,22.1,9.6,22.2,9.6,22.1c0.4,0.5,1.8-0.3,2.5,1.1l0.1-0.1C11.6,21.7,10,22.5,9.6,22.1z"/>
		</g>
	</g>
	<g>
		<g>
			<polygon class="st1" points="14.5,22.5 14.8,21.7 15.7,21.6 15,21 15.2,20.2 14.5,20.6 13.7,20.2 13.9,21 13.3,21.6 14.1,21.7 
							"/>
			<polygon class="st1" points="17,21.5 17.3,20.9 17.9,20.9 17.4,20.4 17.6,19.7 17,20.1 16.4,19.7 16.6,20.4 16.1,20.9 16.7,20.9 
							"/>
			<polygon class="st1" points="18.9,20.5 19.1,20.1 19.5,20.1 19.2,19.8 19.3,19.3 18.9,19.6 18.5,19.3 18.6,19.8 18.3,20.1 
				18.7,20.1 			"/>
			<polygon class="st1" points="12,21.5 11.7,20.9 11.1,20.9 11.5,20.4 11.4,19.7 12,20.1 12.5,19.7 12.4,20.4 12.9,20.9 12.2,20.9 
							"/>
			<polygon class="st1" points="10.1,20.5 9.9,20.1 9.5,20.1 9.8,19.8 9.7,19.3 10.1,19.6 10.4,19.3 10.3,19.8 10.7,20.1 10.2,20.1 
							"/>
		</g>
	</g>
</g>
</svg>
