<svg version="1.1" xmlns="http://www.w3.org/2000/svg" xmlns:xlink="http://www.w3.org/1999/xlink" x="0px" y="0px"
	 viewBox="0 0 200 300" style="enable-background:new 0 0 200 300;" xml:space="preserve">
<style type="text/css">
	.st0{fill:rgba(255,255,255,.15);}
</style>
<circle class="st0" cx="41.9" cy="56.3" r="7.1"/>
<circle class="st0" cx="96.7" cy="59" r="6.6"/>
<circle class="st0" cx="161.3" cy="129.9" r="9.7"/>
<circle class="st0" cx="118.6" cy="112.1" r="9.7"/>
<circle class="st0" cx="64.4" cy="90" r="11.8"/>
<circle class="st0" cx="41.7" cy="139.6" r="6.6"/>
<circle class="st0" cx="94.7" cy="152.7" r="8.1"/>
<circle class="st0" cx="129.4" cy="32.6" r="4.2"/>
<circle class="st0" cx="127.6" cy="85.9" r="4.2"/>
<circle class="st0" cx="142.8" cy="48.5" r="5.2"/>
<circle class="st0" cx="57.1" cy="31.4" r="4.2"/>
<circle class="st0" cx="34" cy="78.3" r="4.2"/>
<circle class="st0" cx="102" cy="106.3" r="4.2"/>
<circle class="st0" cx="67" cy="123.3" r="4.2"/>
<circle class="st0" cx="133.3" cy="153.2" r="4.2"/>
<circle class="st0" cx="185.4" cy="83.6" r="4.2"/>
<circle class="st0" cx="165.5" cy="278.8" r="7.1"/>
<circle class="st0" cx="107.7" cy="262" r="9.7"/>
<circle class="st0" cx="46.2" cy="205.2" r="7.6"/>
<circle class="st0" cx="22.5" cy="275" r="8.3"/>
<circle class="st0" cx="88.8" cy="223" r="11.2"/>
<circle class="st0" cx="143.1" cy="245.1" r="9.7"/>
<circle class="st0" cx="165.7" cy="195.6" r="9.7"/>
<circle class="st0" cx="112.7" cy="182.4" r="9.7"/>
<circle class="st0" cx="79.8" cy="249.2" r="4.2"/>
<circle class="st0" cx="52" cy="262.1" r="5.2"/>
<circle class="st0" cx="173.4" cy="256.8" r="4.2"/>
<circle class="st0" cx="140.5" cy="211.8" r="4.2"/>
<circle class="st0" cx="74.2" cy="181.9" r="4.2"/>
<circle class="st0" cx="24.9" cy="117.8" r="2.3"/>
<circle class="st0" cx="147.3" cy="173.7" r="2.3"/>
<circle class="st0" cx="119.3" cy="196.7" r="2.3"/>
<circle class="st0" cx="72" cy="236" r="2.3"/>
<circle class="st0" cx="53.3" cy="126.4" r="2.3"/>
<circle class="st0" cx="56.7" cy="119" r="2.3"/>
<circle class="st0" cx="7.3" cy="132.7" r="2.3"/>
<circle class="st0" cx="6.7" cy="190" r="2.3"/>
<circle class="st0" cx="183" cy="193" r="2.3"/>
<circle class="st0" cx="109" cy="98" r="2.3"/>
<circle class="st0" cx="86.3" cy="32.3" r="2.3"/>
<circle class="st0" cx="97" cy="14.3" r="2.3"/>
<circle class="st0" cx="129.7" cy="45.7" r="2.3"/>
<circle class="st0" cx="26" cy="150" r="2.3"/>
<circle class="st0" cx="184" cy="182.7" r="2.3"/>
<circle class="st0" cx="177" cy="208.4" r="2.3"/>
<circle class="st0" cx="41" cy="188.3" r="2.3"/>
<circle class="st0" cx="79.7" cy="143" r="2.3"/>
<circle class="st0" cx="177.3" cy="72" r="2.3"/>
<circle class="st0" cx="177.3" cy="92" r="2.3"/>
<circle class="st0" cx="185" cy="32.7" r="2.3"/>
<circle class="st0" cx="64.3" cy="203.7" r="2.3"/>
<circle class="st0" cx="50" cy="277.3" r="2.3"/>
<circle class="st0" cx="148.3" cy="284" r="2.3"/>
<circle class="st0" cx="124" cy="262.3" r="2.3"/>
<circle class="st0" cx="120" cy="274.4" r="2.3"/>
<circle class="st0" cx="127.7" cy="270" r="2.3"/>
<circle class="st0" cx="130" cy="231.7" r="2.3"/>
<circle class="st0" cx="12.7" cy="15.3" r="2.3"/>
<circle class="st0" cx="97.7" cy="40.7" r="2.3"/>
<circle class="st0" cx="17" cy="22" r="2.3"/>
<circle class="st0" cx="65" cy="43" r="2.3"/>
<circle class="st0" cx="59" cy="52.7" r="2.3"/>
<circle class="st0" cx="51.7" cy="44" r="2.3"/>
<circle class="st0" cx="23.2" cy="75.2" r="2.3"/>
<circle class="st0" cx="30.2" cy="66" r="2.3"/>
<circle class="st0" cx="142.7" cy="120.3" r="2.3"/>
<circle class="st0" cx="114.7" cy="165.3" r="2.3"/>
<circle class="st0" cx="121" cy="157.7" r="2.3"/>
<circle class="st0" cx="36.3" cy="259.3" r="2.3"/>
<circle class="st0" cx="42.7" cy="251.7" r="2.3"/>
<circle class="st0" cx="26" cy="210.3" r="2.3"/>
<circle class="st0" cx="160.3" cy="263.3" r="2.3"/>
<circle class="st0" cx="122.3" cy="248" r="2.3"/>
<circle class="st0" cx="105" cy="238" r="2.3"/>
<circle class="st0" cx="10.3" cy="24.4" r="2.3"/>
<circle class="st0" cx="22.7" cy="130" r="2.3"/>
<circle class="st0" cx="76.3" cy="156.8" r="4.2"/>
<ellipse transform="matrix(0.7071 -0.7071 0.7071 0.7071 -104.1998 70.9009)" class="st0" cx="33.5" cy="161.2" rx="4.2" ry="4.2"/>
<circle class="st0" cx="22.1" cy="251.5" r="4.2"/>
<circle class="st0" cx="178.9" cy="22.2" r="4.2"/>
</svg>
