<?xml version="1.0" encoding="utf-8"?>
<!-- Generator: Adobe Illustrator 19.1.0, SVG Export Plug-In . SVG Version: 6.00 Build 0)  -->
<svg version="1.1" id="Layer_1" xmlns="http://www.w3.org/2000/svg" xmlns:xlink="http://www.w3.org/1999/xlink" x="0px" y="0px"
	 width="73px" height="250px" viewBox="-63 -10 73 250" style="enable-background:new -63 -10 73 250;" xml:space="preserve">
<style type="text/css">
	.st0{fill:url(#SVGID_1_);}
	.st1{opacity:0.4;}
	.st2{opacity:0.4;fill:#FFFFFF;enable-background:new    ;}
	.st3{opacity:0.2;}
</style>
<linearGradient id="SVGID_1_" gradientUnits="userSpaceOnUse" x1="-214.7324" y1="112.282" x2="-142.3965" y2="115.8714" gradientTransform="matrix(-1 0 0 1 -178.0791 0)">
	<stop  offset="0.2014" style="stop-color:#FFFFFF"/>
	<stop  offset="0.515" style="stop-color:#FDFDFD"/>
	<stop  offset="0.628" style="stop-color:#F6F6F6"/>
	<stop  offset="0.7086" style="stop-color:#EBEBEB"/>
	<stop  offset="0.7737" style="stop-color:#DADADA"/>
	<stop  offset="0.8295" style="stop-color:#C4C4C4"/>
	<stop  offset="0.8789" style="stop-color:#A8A8A8"/>
	<stop  offset="0.9236" style="stop-color:#888888"/>
	<stop  offset="0.9633" style="stop-color:#646464"/>
	<stop  offset="1" style="stop-color:#3B3B3B"/>
</linearGradient>
<path class="st0" d="M8.4-14.6c0,0,10.7,78.4-29.6,231.6c-1.2,4.8-3.2,21.2,7.5,24.8h27l0.2-256.3L8.4-14.6z"/>
<g class="st1">
	<path class="st2" d="M-29,123.8c-5.7,35.1-15.2,58.2-5.2,60.1c10.3,1.9,18.5-24,24.2-59.1s10.4-66.7-3.5-67.9
		C-26.3,55.8-23.3,88.7-29,123.8z"/>
</g>
<g class="st3">
	<path class="st2" d="M-48.5,201.9c-1.1,7-1.3,12.7,6.8,14.1c8.3,1.4,9.8-4.2,10.9-11.2s-1.9-13.3-6.8-14.1
		C-42.5,190-47.4,195-48.5,201.9z"/>
</g>
</svg>
