<svg id="Mask" xmlns="http://www.w3.org/2000/svg" viewBox="0 0 646.08 292.72"><title>mask</title><path d="M315.69,470.85C281,474.8,260.92,508.1,273,526.1c18.05,27,19-13.77,29-16.14s4.69,21.66,2.07,34.29-.9,21.31,3.72,21.4c10.59.21,10.65-17.46,10.65-23s2.68-66.29,4.46-33.15,0,55.93,8.9,56c8,.09,3.86-41.92,6.53-51.39s5.76-.7,14.31,11.93,21.42-4.28,19.87-20.17C371.56,497.1,350.42,466.91,315.69,470.85Z" transform="translate(0 -287.41)"/><path d="M626.86,341.26c-19.15-60.51-79.66-53.62-79.66-53.62S134.35,300.66,72.3,306C26.66,310,7.13,340.45,0,356.28V476c30.17,126.25,156.09,109.08,191,93.2,42.89-19.49,73.53-76.25,86.55-115.31S321,364.24,353.41,441.6C368.39,477.35,394,534.28,453,560s142.47-5,173.88-62.48S646,401.77,626.86,341.26ZM324.5,378.91a9.84,9.84,0,1,1-19.68,0V322.76a9.84,9.84,0,0,1,19.68,0Z" transform="translate(0 -287.41)"/></svg>