<?xml version="1.0" encoding="utf-8"?>
<!-- Generator: Adobe Illustrator 24.1.0, SVG Export Plug-In . SVG Version: 6.00 Build 0)  -->
<svg version="1.1" id="Layer_1" xmlns="http://www.w3.org/2000/svg" xmlns:xlink="http://www.w3.org/1999/xlink" x="0px" y="0px"
	 width="200px" height="230px" viewBox="0 0 200 230" style="enable-background:new 0 0 200 230;" xml:space="preserve">
<style type="text/css">
	.st0{fill:#FCCF5E;}
</style>
<path class="st0" d="M131,73.9c0,6.3-11.9,62.6-12.5,62.6c1.3,3.8,2.5,7.5,5,11.3c0,2.5,0,3.1,0,3.1H77.8c0,0,0-0.6,0-3.1
	c1.9-3.8,3.8-7.5,5-11.3c0-0.6-12.5-57-12.5-62.6V60.8h6.3v12.5c0,6.3,11.9,62.6,11.9,63.9c-0.6,1.9-0.6,3.1-1.3,5
	c0,0,0,1.3,0.6,1.3h25.7c1.3,0,0.6-1.3,0.6-1.3c-0.6-1.9-1.3-3.1-1.3-5l0,0c0-0.6,11.9-57.6,11.9-63.9V60.8h6.9v13.1H131z
	 M134.2,55.1c0-3.8-11.3-11.9-33.2-11.9s-33.2,8.1-33.2,11.9c0,1.9,0.6,3.8,2.5,3.8h31.3v22.5c1.3,0,1.9,0,2.5,0
	c4.4-0.6,8.1-4.4,8.1-8.8c10,0,8.8-11.3,8.8-13.8h10C132.9,58.9,133.5,57,134.2,55.1z M92.2,203.5c2.5-8.1,13.1-10.6,20.7-14.4
	l-0.6-0.6c0-0.6,0-0.6,0-1.3c-8.8,2.5-20.7,5.6-23.8,15C87.8,204.8,91,206,92.2,203.5z M150.5,176c0.6,0,1.3-0.6,1.9-0.6
	c-0.6,0.6-1.9,0.6-2.5,1.3c0,0.6,0,0.6,0,0.6c-0.6,1.9-1.9,3.1-3.1,4.4c5.6,3.1,13.1-1.9,16.9-8.8c-3.8,0-7.5-1.3-11.3-1.3
	C151.7,173.5,151.1,175.3,150.5,176z M142.3,174.7c-1.3,2.5-4.4,5.6-6.9,7.5c8.1,5.6,16.3-5.6,16.3-16.3c-8.1,3.8-20,3.8-16.9,15.7
	C137.3,179.7,140.4,177.9,142.3,174.7z M147.3,167.8L147.3,167.8c6.3-0.6,3.8-8.8,3.8-8.8C149.2,160.9,145.4,161.6,147.3,167.8z
	 M136.1,176h0.6c0.6-8.1,10-6.9,11.3-10c0.6,0.6,0,0,0,0C146.7,169.1,136.7,167.8,136.1,176z M166.7,160.3c0.6-0.6,1.3-0.6,1.9-1.3
	c-0.6,0.6-1.3,1.3-1.9,1.9c0,0.6,0,0.6,0,0.6c-0.6,1.3-1.3,3.1-1.9,4.4c5.6,1.3,11.3-5.6,12.5-13.1c-3.8,1.3-7.5,1.3-10.6,2.5
	C167.4,157.2,166.7,159.1,166.7,160.3z M159.2,161.6c-0.6,2.5-2.5,6.3-4.4,8.8c9.4,1.9,13.8-10,10.6-20c-6.3,6.3-17.5,10-11.3,19.4
	C155.5,167.2,158,164.1,159.2,161.6z M160.5,152.8h0.6c5.6-1.9,1.3-8.8,1.3-8.8C161.7,146.5,158,147.8,160.5,152.8z M153.6,164.1
	h0.6c-1.3-7.5,7.5-9.4,7.5-12.5l0,0C161.1,154.7,151.7,156.6,153.6,164.1z M176.8,141.5c0.6,0,0.6-0.6,1.3-1.3
	c-0.6,0.6-0.6,1.3-1.3,1.9v0.6c0,1.3,0,3.1-0.6,4.4c5-0.6,8.1-8.1,7.5-15c-2.5,1.9-5.6,3.1-8.1,5
	C176.1,138.4,176.8,140.3,176.8,141.5z M170.5,144.7c-0.6,2.5-1.3,6.3-1.9,8.8c8.8-0.6,9.4-12.5,4.4-20c-3.8,6.3-12.5,12.5-5,19.4
	C168.6,150.3,169.9,147.2,170.5,144.7z M170.5,137.2L170.5,137.2c4.4-3.8-1.3-8.1-1.3-8.1C168.6,130.9,166.1,133.4,170.5,137.2z
	 M166.7,149l0.6-0.6c-3.1-6.9,3.8-10,3.1-13.1l0,0C170.5,137.8,163,142.2,166.7,149z M128.5,189.8c0.6,0,1.9,0,2.5,0
	c-1.3,0-1.9,0-3.1,0l0,0c-1.9,1.3-3.1,2.5-5,3.1c4.4,5,14.4,3.1,20.7-3.1c-3.8-1.9-7.5-4.4-11.3-5.6
	C131,186,129.8,187.2,128.5,189.8z M120.4,184.1c-2.5,1.9-6.9,3.8-10,5c7.5,8.8,19.4,0,23.2-11.3c-9.4,1.3-22.5-3.8-23.2,10
	C113.5,186.6,117.3,186,120.4,184.1z M127.9,177.2v0.6c6.9,1.9,6.9-7.5,6.9-7.5C132.9,171.6,128.5,170.3,127.9,177.2z M113.5,182.9
	l0.6,0.6c4.4-8.8,13.1-3.8,15.7-6.9c0,0.6,0,0,0,0C127.3,179.1,117.3,174.1,113.5,182.9z M111,202.3c-3.1-9.4-15-12.5-23.8-15
	c0,0.6,0,0.6,0,1.3l-0.6,0.6c7.5,3.8,18.2,6.3,20.7,14.4C109.1,206,112.3,204.8,111,202.3z M47.8,171.6c-3.8,0-7.5,1.3-11.3,1.3
	c3.8,6.9,11.3,11.9,16.9,8.8c-1.3-1.3-2.5-2.5-3.1-4.4c0,0,0,0,0-0.6c-1.3,0.6-1.9,0-2.5-0.6c0.6,0,1.3,0.6,1.9,0.6
	C49,175.3,48.4,173.5,47.8,171.6z M64.7,181.6c3.1-11.3-8.8-11.9-16.9-15.7c0,10.6,8.1,21.9,16.3,16.3c-2.5-1.9-5.6-5-6.9-7.5
	C59.7,177.9,62.8,179.7,64.7,181.6z M49,159.1c0,0-2.5,8.1,3.8,8.8l0,0C54.7,161.6,50.3,160.9,49,159.1z M51.5,166
	C51.5,166,51.5,166.6,51.5,166c1.3,3.1,10.6,1.9,11.3,10h0.6C62.8,167.8,53.4,169.1,51.5,166z M32.7,155.3
	c-3.1-1.3-6.9-1.3-10.6-2.5c1.3,7.5,6.9,14.4,12.5,13.1c-0.6-1.3-1.3-3.1-1.9-4.4c0,0,0,0,0-0.6c-0.6-0.6-1.3-1.3-1.9-1.9
	c0.6,0.6,1.3,0.6,1.9,1.3C32.7,159.1,32.7,157.2,32.7,155.3z M45.9,169.7c6.3-9.4-5-13.1-11.3-19.4c-3.1,10,1.3,21.9,10.6,20
	c-1.9-2.5-3.8-6.3-4.4-8.8C42.1,164.1,44,167.2,45.9,169.7z M37.7,144c0,0-4.4,6.9,1.3,8.8h0.6C42.1,147.8,38.4,146.5,37.7,144z
	 M38.4,151.6C38.4,151.6,37.7,151.6,38.4,151.6c0,3.1,8.8,5,7.5,12.5h0.6C47.8,156.6,38.4,154.7,38.4,151.6z M24,137.2
	c-2.5-1.9-5.6-3.1-8.1-5c-0.6,6.9,2.5,14.4,7.5,15c-0.6-1.3-0.6-3.1-0.6-4.4v-0.6c-0.6-0.6-0.6-1.3-1.3-1.9c0.6,0.6,0.6,1.3,1.3,1.3
	C23.3,140.3,23.3,138.4,24,137.2z M32.1,152.8c7.5-6.9-1.3-13.1-5-19.4c-5,7.5-4.4,19.4,4.4,20c-0.6-2.5-1.3-6.3-1.9-8.8
	C30.2,147.2,30.9,150.3,32.1,152.8z M30.9,129c0,0-5.6,4.4-1.3,8.1l0,0C34,133.4,30.9,130.9,30.9,129z M29.6,135.3L29.6,135.3
	c-0.6,3.1,6.3,6.3,3.1,13.1l0.6,0.6C37.1,142.2,29.6,137.8,29.6,135.3z M67.8,184.1c-3.8,1.3-7.5,3.8-11.3,5.6
	c6.3,6.3,16.3,8.1,20.7,3.1c-1.9-0.6-3.1-1.9-5-3.1l0,0c-1.3,0-1.9,0-3.1,0c0.6,0,1.9,0,2.5,0C70.3,187.2,69.1,186,67.8,184.1z
	 M89.1,187.9c-0.6-13.8-13.8-8.8-23.2-10c3.8,11.3,15.7,20,23.2,11.3c-3.1-1.3-7.5-3.1-10-5C82.2,186,86,186.6,89.1,187.9z
	 M64.7,170.3c0,0,0,9.4,6.9,7.5v-0.6C71.6,170.3,67.2,171.6,64.7,170.3z M70.3,176.6C70.3,176.6,70.3,177.2,70.3,176.6
	c2.5,3.1,11.3-1.9,15.7,6.9l0.6-0.6C82.8,174.1,72.8,179.1,70.3,176.6z M101,179.1l1.9-5l5.6-0.6l-4.4-3.8l1.3-5l-4.4,2.5l-5-2.5
	l1.3,5l-3.8,3.8l5,0.6L101,179.1z M116.6,172.8l1.9-3.8h3.8l-3.1-3.1l1.3-4.4l-3.8,2.5l-3.8-2.5l1.3,4.4l-3.1,3.1h3.8L116.6,172.8z
	 M128.5,166.6l1.3-2.5h2.5l-1.9-1.9l0.6-3.1l-2.5,1.9l-2.5-1.9l0.6,3.1l-1.9,1.9h2.5L128.5,166.6z M86.6,169.1H91l-3.1-3.1l0.6-4.4
	l-3.1,2.5l-3.8-2.5l0.6,4.4l-2.5,3.1h3.8l1.9,3.8L86.6,169.1z M74.1,164.1h3.1l-2.5-1.9l0.6-3.1l-1.9,1.9l-2.5-1.9l0.6,3.1l-1.9,1.9
	h2.5l1.3,2.5L74.1,164.1z"/>
<g>
	<path class="st0" d="M26.1,126.3c-0.3,0-0.7-0.3-0.8-0.7c-1.1-2.7-6.4-52.4,17.1-85.1c0.3-0.4,0.9-0.5,1.2-0.1
		c0.4,0.4,0.4,1,0.1,1.4c-22.2,30.9-18,78.5-16.9,82.8c0.2,0.3,0.3,0.8,0.1,1.2C26.8,126.1,26.6,126.4,26.1,126.3z"/>
	<path class="st0" d="M29.3,123c-1.6-0.9-2.2-29,1.9-47.6c0.1-0.5,0.6-0.9,1.1-0.7c0.5,0.1,0.7,0.7,0.6,1.2
		c-4.8,21.7-2.4,45.8-2.3,46l-0.8,0.3L29.3,123z"/>
	<path class="st0" d="M18.8,126.1c-1.7-0.6-5.4-30.9-3.4-52.1c0.1-0.6,0.5-1,1-0.9s0.8,0.5,0.8,1.1c-2.2,23.2,2.2,48.8,2.7,50.5
		l-0.8,0.4L18.8,126.1z"/>
	<path class="st0" d="M24.2,131.6h-0.1c-0.6-0.1-0.9-0.8-1.2-2.1c-2-8.1-7.9-69.3,22.1-100c0.4-0.4,0.9-0.3,1.2,0.1s0.3,1.1-0.1,1.4
		c-30.1,30.7-23,93.6-21.4,98.6c0,0,0.1,0,0.1,0.1c0.4,0.3,0.5,1,0.2,1.4C24.9,131.4,24.5,131.6,24.2,131.6z"/>
	<path class="st0" d="M21.7,129.2c-0.3,0-0.7-0.3-0.8-0.6c-1.3-2.8-10.2-54.7,12.4-91.3c0.3-0.4,0.8-0.6,1.2-0.2
		c0.4,0.3,0.5,0.9,0.2,1.4c-21.6,34.9-13.8,84.5-12.4,89c0.3,0.3,0.4,0.7,0.2,1.2C22.4,128.9,22,129.1,21.7,129.2L21.7,129.2z"/>
</g>
<g>
	<path class="st0" d="M174.7,126.3c0.3,0,0.7-0.3,0.8-0.7c1.1-2.7,6.4-52.4-17.1-85.1c-0.3-0.4-0.9-0.5-1.2-0.1
		c-0.4,0.4-0.4,1-0.1,1.4c22.2,30.9,18,78.5,16.9,82.8c-0.2,0.3-0.3,0.8-0.1,1.2C174,126.1,174.2,126.4,174.7,126.3z"/>
	<path class="st0" d="M171.5,123c1.6-0.9,2.2-29-1.9-47.6c-0.1-0.5-0.6-0.9-1.1-0.7c-0.5,0.1-0.7,0.7-0.6,1.2
		c4.8,21.7,2.4,45.8,2.3,46l0.8,0.3L171.5,123z"/>
	<path class="st0" d="M182,126.1c1.7-0.6,5.4-30.9,3.4-52.1c-0.1-0.6-0.5-1-1-0.9s-0.8,0.5-0.8,1.1c2.2,23.2-2.2,48.8-2.7,50.5
		l0.8,0.4L182,126.1z"/>
	<path class="st0" d="M176.6,131.6h0.1c0.6-0.1,0.9-0.8,1.2-2.1c1.9-8.2,7.9-69.3-22.1-100c-0.4-0.4-0.9-0.3-1.2,0.1
		s-0.3,1.1,0.1,1.4c30.1,30.7,23,93.6,21.4,98.6c0,0-0.1,0-0.1,0.1c-0.4,0.3-0.5,1-0.2,1.4C175.9,131.4,176.3,131.6,176.6,131.6z"/>
	<path class="st0" d="M179.1,129.2c0.3,0,0.7-0.3,0.8-0.6c1.3-2.8,10.2-54.7-12.4-91.3c-0.3-0.4-0.8-0.6-1.2-0.2
		c-0.4,0.3-0.5,0.9-0.2,1.4c21.6,34.9,13.8,84.5,12.4,89c-0.3,0.3-0.4,0.7-0.2,1.2C178.4,128.9,178.8,129.1,179.1,129.2L179.1,129.2
		z"/>
</g>
</svg>
